<?xml version="1.0" encoding="UTF-8"?>
<svg id="Layer_1" data-name="Layer 1" xmlns="http://www.w3.org/2000/svg" viewBox="0 0 1920 1080">
  <defs>
    <style>
      .cls-1 {
        fill: none;
      }

      .cls-2 {
        fill: #0b1f2a;
      }

      .cls-3 {
        fill: #00c7b1;
      }

      .cls-4 {
        fill: #a3e635;
      }
    </style>
  </defs>
  <g>
    <rect class="cls-2" x="117.62" y="344.75" width="390.49" height="390.49" rx="20" ry="20"/>
    <path class="cls-4" d="M357.73,500.25c0-1.6,1.3-2.89,2.89-2.89h38.09c1.6,0,2.89,1.3,2.89,2.89v38.09c0,1.6-1.3,2.89-2.89,2.89h-38.09c-1.6,0-2.89-1.3-2.89-2.89v-38.09Z"/>
    <path class="cls-3" d="M226.09,434.42c0-1.6,1.3-2.89,2.89-2.89h38.09c1.6,0,2.89,1.3,2.89,2.89v213.62c0,1.6-1.3,2.89-2.89,2.89h-38.09c-1.6,0-2.89-1.3-2.89-2.89v-213.62Z"/>
    <path class="cls-3" d="M291.91,478.3c0-1.6,1.3-2.89,2.89-2.89h38.09c1.6,0,2.89,1.3,2.89,2.89v169.74c0,1.6-1.3,2.89-2.89,2.89h-38.09c-1.6,0-2.89-1.3-2.89-2.89v-169.74Z"/>
    <path class="cls-3" d="M357.73,566.07c0-1.6,1.3-2.89,2.89-2.89h38.09c1.6,0,2.89,1.3,2.89,2.89v81.98c0,1.6-1.3,2.89-2.89,2.89h-38.09c-1.6,0-2.89-1.3-2.89-2.89v-81.98Z"/>
    <path class="cls-2" d="M1758.98,687.95c-1.3,0-2.51-.65-3.23-1.74l-30.62-46.57c-1.57-2.39-5.12-2.3-6.56.18l-26.93,46.21c-.69,1.19-1.96,1.92-3.33,1.92h-37c-3.06,0-4.9-3.38-3.24-5.95l50.66-78.42c.83-1.28.82-2.94-.02-4.21l-51.17-77.78c-1.69-2.57.15-5.98,3.22-5.98h39.53c1.3,0,2.52.66,3.23,1.74l30.34,46.28c1.57,2.39,5.09,2.31,6.55-.15l27.21-45.98c.69-1.17,1.96-1.89,3.32-1.89h36.97c3.07,0,4.91,3.41,3.23,5.97l-50.89,77.78c-.84,1.29-.84,2.95,0,4.23l51.49,78.39c1.69,2.57-.16,5.98-3.23,5.98h-39.54Z"/>
    <path class="cls-2" d="M1630.75,598.05c0,4.89-.26,9.4-.78,13.53-.23,1.87-1.85,3.23-3.74,3.23h-119.22c-2.26,0-4.05,1.93-3.71,4.17,1.6,10.44,5.82,18.78,12.65,25,7.72,7.03,17.2,10.55,28.46,10.55,15.42,0,26.62-6.22,33.6-18.67.72-1.28,2.05-2.12,3.51-2.12h39.64c2.59,0,4.44,2.5,3.54,4.93-5.33,14.35-14.37,26.36-27.12,36.03-14.18,10.55-31.59,15.83-52.24,15.83-16.68,0-31.69-3.62-45.04-10.86-13.14-7.45-23.46-17.89-30.97-31.34-7.3-13.45-10.95-28.96-10.95-46.55s3.65-33.41,10.95-46.86c7.3-13.45,17.52-23.79,30.65-31.03,13.14-7.24,28.26-10.86,45.36-10.86s31.18,3.52,44.1,10.55c13.14,7.03,23.25,17.07,30.34,30.1,7.3,12.83,10.95,27.62,10.95,44.37ZM1581.46,585.64c2.16,0,3.92-1.78,3.69-3.92-1-9.35-4.99-16.94-11.96-22.76-7.92-6.83-17.62-10.24-29.09-10.24-10.84,0-20.02,3.31-27.53,9.93-6.35,5.58-10.57,13.12-12.66,22.61-.5,2.3,1.31,4.38,3.66,4.38h73.88Z"/>
    <path class="cls-2" d="M1358.62,510.06c20.58,0,37.21,6.54,49.89,19.61,12.68,12.87,19.02,30.92,19.02,54.16v97.3c0,2.13-1.73,3.86-3.86,3.86h-35.94c-2.13,0-3.86-1.73-3.86-3.86v-91.38c0-13.69-3.43-24.17-10.29-31.44-6.86-7.47-16.21-11.21-28.06-11.21s-21.62,3.74-28.69,11.21c-6.86,7.26-10.29,17.74-10.29,31.44v91.38c0,2.13-1.73,3.86-3.86,3.86h-35.94c-2.13,0-3.86-1.73-3.86-3.86v-164.72c0-2.13,1.73-3.86,3.86-3.86h35.94c2.13,0,3.86,1.73,3.86,3.86v8.26c0,3.44,4.25,5.25,6.84,2.97,4.54-4.01,10.53-8.83,15.3-11.04,9.15-4.36,19.12-6.54,29.93-6.54Z"/>
    <path class="cls-2" d="M954.21,598.05c0,4.89-.26,9.4-.78,13.53-.23,1.87-1.85,3.23-3.74,3.23h-119.22c-2.26,0-4.05,1.93-3.71,4.17,1.6,10.44,5.82,18.78,12.65,25,7.72,7.03,17.2,10.55,28.46,10.55,15.42,0,26.62-6.22,33.6-18.67.72-1.28,2.04-2.12,3.51-2.12h39.64c2.59,0,4.44,2.5,3.54,4.93-5.33,14.35-14.37,26.36-27.12,36.03-14.18,10.55-31.59,15.83-52.24,15.83-16.68,0-31.69-3.62-45.04-10.86-13.14-7.45-23.46-17.89-30.97-31.34-7.3-13.45-10.95-28.96-10.95-46.55s3.65-33.41,10.95-46.86c7.3-13.45,17.52-23.79,30.65-31.03,13.14-7.24,28.26-10.86,45.36-10.86s31.18,3.52,44.1,10.55c13.14,7.03,23.25,17.07,30.34,30.1,7.3,12.83,10.95,27.62,10.95,44.37ZM904.92,585.64c2.16,0,3.92-1.78,3.69-3.92-1-9.35-4.99-16.94-11.96-22.76-7.93-6.83-17.62-10.24-29.09-10.24-10.84,0-20.02,3.31-27.53,9.93-6.35,5.58-10.57,13.12-12.66,22.61-.5,2.3,1.31,4.38,3.66,4.38h73.88Z"/>
    <path class="cls-2" d="M814.95,394.3c3.64,0,5.46,0,6.59,1.13,1.13,1.13,1.13,2.95,1.13,6.59v32.04c0,3.64,0,5.46-1.13,6.59-1.13,1.13-2.95,1.13-6.59,1.13h-63.07c-3.64,0-5.45,0-6.59,1.13-1.13,1.13-1.13,2.95-1.13,6.59v230.34c0,3.64,0,5.46-1.13,6.59-1.13,1.13-2.95,1.13-6.59,1.13h-43.65c-3.64,0-5.46,0-6.59-1.13-1.13-1.13-1.13-2.95-1.13-6.59v-230.34c0-3.64,0-5.46-1.13-6.59-1.13-1.13-2.95-1.13-6.59-1.13h-63.06c-3.64,0-5.46,0-6.59-1.13-1.13-1.13-1.13-2.95-1.13-6.59v-32.04c0-3.64,0-5.46,1.13-6.59,1.13-1.13,2.95-1.13,6.59-1.13h200.65Z"/>
    <path class="cls-2" d="M1129.9,393.98c2.19,0,3.98,1.78,3.98,3.98v285.3c0,2.2-1.78,3.98-3.98,3.98h-50.31c-2.19,0-3.98-1.78-3.98-3.98v-285.3c0-2.2,1.78-3.98,3.98-3.98h50.31Z"/>
    <path class="cls-2" d="M1216.76,489.76c2.2,0,3.98,1.78,3.98,3.98v189.53c0,2.2-1.78,3.98-3.98,3.98h-50.3c-2.2,0-3.98-1.78-3.98-3.98v-189.53c0-2.2,1.78-3.98,3.98-3.98h50.3Z"/>
    <path class="cls-2" d="M1042.02,393.98c2.2,0,3.98,1.78,3.98,3.98v285.3c0,2.2-1.78,3.98-3.98,3.98h-50.3c-2.19,0-3.98-1.78-3.98-3.98v-285.3c0-2.2,1.78-3.98,3.98-3.98h50.3Z"/>
    <circle class="cls-2" cx="1192.6" cy="430.34" r="36.04"/>
  </g>
  <rect class="cls-1" y="227.14" width="1920" height="625.73"/>
</svg>