<?xml version="1.0" encoding="UTF-8"?>
<svg id="Layer_1" data-name="Layer 1" xmlns="http://www.w3.org/2000/svg" viewBox="0 0 1920 1080">
  <defs>
    <style>
      .cls-1 {
        fill: #fff;
      }

      .cls-2 {
        fill: none;
      }

      .cls-3 {
        fill: #00c7b1;
      }

      .cls-4 {
        fill: #a3e635;
      }
    </style>
  </defs>
  <g>
    <path class="cls-4" d="M904.57,466.6c0-2.86,2.32-5.18,5.18-5.18h68.22c2.86,0,5.18,2.32,5.18,5.18v68.22c0,2.86-2.32,5.18-5.18,5.18h-68.22c-2.86,0-5.18-2.32-5.18-5.18v-68.22Z"/>
    <path class="cls-3" d="M668.84,348.73c0-2.86,2.32-5.18,5.18-5.18h68.22c2.86,0,5.18,2.32,5.18,5.18v382.55c0,2.86-2.32,5.18-5.18,5.18h-68.22c-2.86,0-5.18-2.32-5.18-5.18v-382.55Z"/>
    <path class="cls-3" d="M786.72,427.31c0-2.86,2.32-5.18,5.18-5.18h68.22c2.86,0,5.18,2.32,5.18,5.18v303.97c0,2.86-2.32,5.18-5.18,5.18h-68.22c-2.86,0-5.18-2.32-5.18-5.18v-303.97Z"/>
    <path class="cls-3" d="M904.57,584.48c0-2.86,2.32-5.18,5.18-5.18h68.22c2.86,0,5.18,2.32,5.18,5.18v146.8c0,2.86-2.32,5.18-5.18,5.18h-68.22c-2.86,0-5.18-2.32-5.18-5.18v-146.8Z"/>
    <path class="cls-1" d="M1704.55,737.84c-1.74,0-3.37-.88-4.33-2.33l-41.12-62.53c-2.11-3.21-6.87-3.09-8.8.24l-36.16,62.05c-.93,1.59-2.63,2.57-4.48,2.57h-49.68c-4.1,0-6.58-4.54-4.35-7.99l68.02-105.3c1.11-1.72,1.1-3.94-.02-5.66l-68.71-104.45c-2.27-3.44.2-8.03,4.33-8.03h53.08c1.75,0,3.38.88,4.33,2.34l40.75,62.14c2.1,3.21,6.84,3.1,8.79-.2l36.54-61.74c.93-1.58,2.63-2.54,4.45-2.54h49.64c4.12,0,6.59,4.57,4.34,8.02l-68.33,104.44c-1.13,1.73-1.13,3.96,0,5.68l69.13,105.27c2.26,3.45-.21,8.03-4.33,8.03h-53.09Z"/>
    <path class="cls-1" d="M1532.39,617.13c0,6.57-.35,12.63-1.04,18.16-.32,2.51-2.49,4.34-5.02,4.34h-160.08c-3.03,0-5.44,2.6-4.98,5.6,2.15,14.02,7.81,25.21,16.98,33.57,10.36,9.44,23.1,14.17,38.22,14.17,20.7,0,35.74-8.36,45.12-25.07.96-1.72,2.75-2.84,4.72-2.84h53.23c3.48,0,5.97,3.36,4.76,6.62-7.16,19.27-19.3,35.4-36.42,48.39-19.04,14.17-42.42,21.25-70.14,21.25-22.4,0-42.56-4.86-60.48-14.58-17.64-10-31.5-24.03-41.58-42.08-9.8-18.06-14.7-38.89-14.7-62.5s4.9-44.86,14.7-62.92c9.8-18.06,23.52-31.94,41.16-41.67,17.64-9.72,37.95-14.58,60.9-14.58s41.86,4.72,59.22,14.17c17.64,9.44,31.22,22.92,40.74,40.42,9.8,17.22,14.7,37.08,14.7,59.58ZM1466.21,600.46c2.9,0,5.26-2.39,4.95-5.27-1.34-12.55-6.69-22.74-16.06-30.57-10.64-9.17-23.66-13.75-39.06-13.75-14.56,0-26.88,4.44-36.96,13.33-8.52,7.49-14.19,17.61-16.99,30.37-.68,3.08,1.76,5.88,4.91,5.88h99.2Z"/>
    <path class="cls-1" d="M1166.96,498.99c27.63,0,49.97,8.78,66.99,26.33,17.03,17.28,25.54,41.52,25.54,72.72v130.65c0,2.86-2.32,5.18-5.18,5.18h-48.26c-2.86,0-5.18-2.32-5.18-5.18v-122.71c0-18.39-4.61-32.46-13.82-42.21-9.21-10.03-21.77-15.05-37.68-15.05s-29.03,5.02-38.52,15.05c-9.21,9.75-13.82,23.82-13.82,42.21v122.71c0,2.86-2.32,5.18-5.18,5.18h-48.25c-2.86,0-5.18-2.32-5.18-5.18v-221.18c0-2.86,2.32-5.18,5.18-5.18h48.25c2.86,0,5.18,2.32,5.18,5.18v11.09c0,4.62,5.71,7.05,9.18,3.99,6.1-5.39,14.14-11.86,20.55-14.83,12.28-5.85,25.68-8.78,40.19-8.78Z"/>
    <path class="cls-1" d="M623.94,617.13c0,6.57-.35,12.63-1.05,18.16-.31,2.51-2.49,4.34-5.02,4.34h-160.09c-3.03,0-5.44,2.6-4.98,5.6,2.15,14.02,7.81,25.21,16.98,33.57,10.36,9.44,23.1,14.17,38.22,14.17,20.7,0,35.74-8.36,45.12-25.07.96-1.72,2.75-2.84,4.71-2.84h53.23c3.47,0,5.96,3.36,4.76,6.62-7.16,19.27-19.3,35.4-36.42,48.39-19.04,14.17-42.42,21.25-70.14,21.25-22.4,0-42.56-4.86-60.48-14.58-17.64-10-31.5-24.03-41.58-42.08-9.8-18.06-14.7-38.89-14.7-62.5s4.9-44.86,14.7-62.92c9.8-18.06,23.52-31.94,41.16-41.67,17.64-9.72,37.94-14.58,60.9-14.58s41.86,4.72,59.22,14.17c17.64,9.44,31.22,22.92,40.74,40.42,9.8,17.22,14.7,37.08,14.7,59.58ZM557.76,600.46c2.9,0,5.26-2.39,4.95-5.27-1.34-12.55-6.69-22.74-16.06-30.57-10.64-9.17-23.66-13.75-39.06-13.75-14.56,0-26.88,4.44-36.96,13.33-8.53,7.49-14.19,17.61-17,30.37-.68,3.08,1.76,5.88,4.92,5.88h99.2Z"/>
    <path class="cls-1" d="M436.95,343.55c4.88,0,7.33,0,8.85,1.52,1.52,1.52,1.52,3.96,1.52,8.84v43.02c0,4.88,0,7.33-1.52,8.85-1.52,1.52-3.96,1.52-8.85,1.52h-84.68c-4.88,0-7.33,0-8.85,1.52-1.52,1.52-1.52,3.96-1.52,8.85v309.3c0,4.89,0,7.33-1.52,8.85-1.52,1.52-3.96,1.52-8.85,1.52h-58.61c-4.88,0-7.33,0-8.84-1.52-1.52-1.52-1.52-3.96-1.52-8.85v-309.3c0-4.88,0-7.33-1.52-8.85-1.52-1.52-3.96-1.52-8.84-1.52h-84.68c-4.88,0-7.33,0-8.84-1.52-1.52-1.52-1.52-3.96-1.52-8.85v-43.02c0-4.88,0-7.33,1.52-8.84s3.96-1.52,8.84-1.52h269.42Z"/>
  </g>
  <rect class="cls-2" y="186.38" width="1920" height="707.23"/>
</svg>