<?xml version="1.0" encoding="UTF-8"?>
<svg id="Layer_1" data-name="Layer 1" xmlns="http://www.w3.org/2000/svg" viewBox="0 0 1920 1080">
  <defs>
    <style>
      .cls-1 {
        fill: none;
      }
    </style>
  </defs>
  <g>
    <path d="M488.11,344.75H137.62c-11.05,0-20,8.96-20,20v350.5c0,11.04,8.95,20,20,20h350.49c11.05,0,20-8.96,20-20v-350.5c0-11.04-8.95-20-20-20ZM269.97,648.04c0,1.6-1.29,2.9-2.89,2.9h-38.1c-1.59,0-2.89-1.3-2.89-2.9v-213.62c0-1.59,1.3-2.89,2.89-2.89h38.1c1.6,0,2.89,1.3,2.89,2.89v213.62ZM335.79,648.04c0,1.6-1.3,2.9-2.89,2.9h-38.1c-1.6,0-2.89-1.3-2.89-2.9v-169.74c0-1.59,1.29-2.89,2.89-2.89h38.1c1.59,0,2.89,1.3,2.89,2.89v169.74ZM401.62,648.05c0,1.59-1.3,2.89-2.9,2.89h-38.09c-1.6,0-2.9-1.3-2.9-2.89v-81.98c0-1.6,1.3-2.9,2.9-2.9h38.09c1.6,0,2.9,1.3,2.9,2.9v81.98ZM401.62,538.34c0,1.6-1.3,2.89-2.9,2.89h-38.09c-1.6,0-2.9-1.29-2.9-2.89v-38.09c0-1.6,1.3-2.9,2.9-2.9h38.09c1.6,0,2.9,1.3,2.9,2.9v38.09Z"/>
    <path d="M1758.98,687.95c-1.3,0-2.51-.65-3.23-1.74l-30.62-46.57c-1.57-2.39-5.12-2.3-6.56.18l-26.93,46.21c-.69,1.19-1.96,1.92-3.33,1.92h-37c-3.06,0-4.9-3.38-3.24-5.95l50.66-78.42c.83-1.28.82-2.94-.02-4.21l-51.17-77.78c-1.69-2.57.15-5.98,3.22-5.98h39.53c1.3,0,2.52.66,3.23,1.74l30.34,46.28c1.57,2.39,5.09,2.31,6.55-.15l27.21-45.98c.69-1.17,1.96-1.89,3.32-1.89h36.97c3.07,0,4.91,3.41,3.23,5.97l-50.89,77.78c-.84,1.29-.84,2.95,0,4.23l51.49,78.39c1.69,2.57-.16,5.98-3.23,5.98h-39.54Z"/>
    <path d="M1619.8,553.68c-7.09-13.04-17.2-23.07-30.34-30.1-12.93-7.04-27.63-10.55-44.11-10.55s-32.21,3.62-45.35,10.86c-13.14,7.24-23.36,17.58-30.66,31.03-7.3,13.44-10.95,29.06-10.95,46.85s3.65,33.1,10.95,46.55c7.51,13.45,17.83,23.89,30.97,31.34,13.35,7.24,28.36,10.86,45.04,10.86,20.65,0,38.06-5.27,52.24-15.82,12.75-9.68,21.79-21.69,27.12-36.04.9-2.42-.95-4.92-3.54-4.92h-39.64c-1.47,0-2.79.84-3.51,2.11-6.99,12.45-18.19,18.68-33.61,18.68-11.26,0-20.74-3.52-28.46-10.55-6.83-6.23-11.04-14.57-12.65-25.01-.34-2.23,1.45-4.16,3.71-4.16h119.22c1.88,0,3.5-1.36,3.74-3.23.52-4.13.78-8.63.78-13.53,0-16.76-3.65-31.55-10.95-44.37ZM1581.46,585.64h-73.88c-2.35,0-4.17-2.09-3.66-4.38,2.09-9.5,6.31-17.04,12.66-22.62,7.5-6.62,16.68-9.93,27.52-9.93,11.47,0,21.17,3.41,29.09,10.24,6.97,5.83,10.96,13.41,11.96,22.76.23,2.15-1.53,3.93-3.69,3.93Z"/>
    <path d="M1358.62,510.06c20.58,0,37.21,6.54,49.89,19.61,12.68,12.87,19.02,30.92,19.02,54.16v97.3c0,2.13-1.73,3.86-3.86,3.86h-35.94c-2.13,0-3.86-1.73-3.86-3.86v-91.38c0-13.69-3.43-24.17-10.29-31.44-6.86-7.47-16.21-11.21-28.06-11.21s-21.62,3.74-28.69,11.21c-6.86,7.26-10.29,17.74-10.29,31.44v91.38c0,2.13-1.73,3.86-3.86,3.86h-35.94c-2.13,0-3.86-1.73-3.86-3.86v-164.72c0-2.13,1.73-3.86,3.86-3.86h35.94c2.13,0,3.86,1.73,3.86,3.86v8.26c0,3.44,4.25,5.25,6.84,2.97,4.54-4.01,10.53-8.83,15.3-11.04,9.15-4.36,19.12-6.54,29.93-6.54Z"/>
    <path d="M943.26,553.68c-7.09-13.04-17.21-23.07-30.34-30.1-12.93-7.04-27.63-10.55-44.11-10.55s-32.22,3.62-45.35,10.86c-13.14,7.24-23.36,17.58-30.66,31.03-7.3,13.44-10.95,29.06-10.95,46.85s3.65,33.1,10.95,46.55c7.51,13.45,17.83,23.89,30.97,31.34,13.35,7.24,28.36,10.86,45.04,10.86,20.65,0,38.06-5.27,52.24-15.82,12.75-9.68,21.79-21.69,27.12-36.04.9-2.42-.95-4.92-3.54-4.92h-39.64c-1.47,0-2.8.84-3.51,2.11-6.99,12.45-18.19,18.68-33.61,18.68-11.26,0-20.74-3.52-28.46-10.55-6.83-6.23-11.05-14.57-12.65-25.01-.34-2.23,1.45-4.16,3.71-4.16h119.22c1.88,0,3.5-1.36,3.74-3.23.52-4.13.78-8.63.78-13.53,0-16.76-3.65-31.55-10.95-44.37ZM904.92,585.64h-73.88c-2.35,0-4.17-2.09-3.66-4.38,2.08-9.5,6.3-17.04,12.66-22.62,7.5-6.62,16.68-9.93,27.52-9.93,11.47,0,21.17,3.41,29.09,10.24,6.97,5.83,10.96,13.41,11.96,22.76.23,2.15-1.53,3.93-3.69,3.93Z"/>
    <path d="M814.95,394.3c3.64,0,5.46,0,6.59,1.13,1.13,1.13,1.13,2.95,1.13,6.59v32.04c0,3.64,0,5.46-1.13,6.59-1.13,1.13-2.95,1.13-6.59,1.13h-63.07c-3.64,0-5.45,0-6.59,1.13-1.13,1.13-1.13,2.95-1.13,6.59v230.34c0,3.64,0,5.46-1.13,6.59-1.13,1.13-2.95,1.13-6.59,1.13h-43.65c-3.64,0-5.46,0-6.59-1.13-1.13-1.13-1.13-2.95-1.13-6.59v-230.34c0-3.64,0-5.46-1.13-6.59-1.13-1.13-2.95-1.13-6.59-1.13h-63.06c-3.64,0-5.46,0-6.59-1.13-1.13-1.13-1.13-2.95-1.13-6.59v-32.04c0-3.64,0-5.46,1.13-6.59,1.13-1.13,2.95-1.13,6.59-1.13h200.65Z"/>
    <path d="M1129.9,393.98c2.19,0,3.98,1.78,3.98,3.98v285.3c0,2.2-1.78,3.98-3.98,3.98h-50.31c-2.19,0-3.98-1.78-3.98-3.98v-285.3c0-2.2,1.78-3.98,3.98-3.98h50.31Z"/>
    <path d="M1216.76,489.76c2.2,0,3.98,1.78,3.98,3.98v189.53c0,2.2-1.78,3.98-3.98,3.98h-50.3c-2.2,0-3.98-1.78-3.98-3.98v-189.53c0-2.2,1.78-3.98,3.98-3.98h50.3Z"/>
    <path d="M1042.02,393.98c2.2,0,3.98,1.78,3.98,3.98v285.3c0,2.2-1.78,3.98-3.98,3.98h-50.3c-2.19,0-3.98-1.78-3.98-3.98v-285.3c0-2.2,1.78-3.98,3.98-3.98h50.3Z"/>
    <circle cx="1192.6" cy="430.34" r="36.04"/>
  </g>
  <path class="cls-1" d="M0,227.14v625.72h1920V227.14H0ZM226.09,648.04v-213.62c0-1.59,1.3-2.89,2.89-2.89h38.1c1.6,0,2.89,1.3,2.89,2.89v213.62c0,1.6-1.29,2.9-2.89,2.9h-38.1c-1.59,0-2.89-1.3-2.89-2.9ZM291.91,648.04v-169.74c0-1.59,1.29-2.89,2.89-2.89h38.1c1.59,0,2.89,1.3,2.89,2.89v169.74c0,1.6-1.3,2.9-2.89,2.9h-38.1c-1.6,0-2.89-1.3-2.89-2.9ZM357.73,648.05v-81.98c0-1.6,1.3-2.9,2.9-2.9h38.09c1.6,0,2.9,1.3,2.9,2.9v81.98c0,1.59-1.3,2.89-2.9,2.89h-38.09c-1.6,0-2.9-1.3-2.9-2.89ZM401.62,538.34c0,1.6-1.3,2.89-2.9,2.89h-38.09c-1.6,0-2.9-1.29-2.9-2.89v-38.09c0-1.6,1.3-2.9,2.9-2.9h38.09c1.6,0,2.9,1.3,2.9,2.9v38.09Z"/>
</svg>