<?xml version="1.0" encoding="UTF-8"?>
<svg id="Layer_1" data-name="Layer 1" xmlns="http://www.w3.org/2000/svg" viewBox="0 0 512 512">
  <defs>
    <style>
      .cls-1 {
        fill: #0b1f2a;
      }

      .cls-2 {
        fill: #00c7b1;
      }

      .cls-3 {
        fill: #a3e635;
      }
    </style>
  </defs>
  <rect class="cls-1" width="512" height="512" rx="69.5" ry="69.5"/>
  <path class="cls-3" d="M314.83,203.88c0-2.1,1.7-3.79,3.79-3.79h49.95c2.1,0,3.79,1.7,3.79,3.79v49.95c0,2.09-1.7,3.79-3.79,3.79h-49.95c-2.1,0-3.79-1.7-3.79-3.79v-49.95Z"/>
  <path class="cls-2" d="M142.23,117.57c0-2.09,1.7-3.79,3.79-3.79h49.95c2.1,0,3.79,1.7,3.79,3.79v280.09c0,2.1-1.7,3.79-3.79,3.79h-49.95c-2.1,0-3.79-1.7-3.79-3.79V117.57Z"/>
  <path class="cls-2" d="M228.52,175.11c0-2.09,1.7-3.79,3.79-3.79h49.95c2.1,0,3.79,1.7,3.79,3.79v222.55c0,2.1-1.7,3.79-3.79,3.79h-49.95c-2.1,0-3.79-1.7-3.79-3.79v-222.55Z"/>
  <path class="cls-2" d="M314.83,290.18c0-2.1,1.7-3.79,3.79-3.79h49.95c2.1,0,3.79,1.7,3.79,3.79v107.49c0,2.09-1.7,3.79-3.79,3.79h-49.95c-2.1,0-3.79-1.7-3.79-3.79v-107.49Z"/>
</svg>